<?xml version="1.0" encoding="utf-8"?>
<!-- Generator: Adobe Illustrator 16.0.3, SVG Export Plug-In . SVG Version: 6.00 Build 0)  -->
<!DOCTYPE svg PUBLIC "-//W3C//DTD SVG 1.1//EN" "http://www.w3.org/Graphics/SVG/1.1/DTD/svg11.dtd">
<svg version="1.1" id="Layer_1" xmlns="http://www.w3.org/2000/svg" xmlns:xlink="http://www.w3.org/1999/xlink" x="0px" y="0px"
	 width="300px" height="300px" viewBox="0 0 300 300" enable-background="new 0 0 300 300" xml:space="preserve">
<path d="M150,0C67.157,0,0,67.157,0,150s67.157,150,150,150s150-67.157,150-150S232.843,0,150,0z M150,276.264
	c-69.733,0-126.264-56.53-126.264-126.264S80.267,23.736,150,23.736S276.264,80.267,276.264,150S219.733,276.264,150,276.264z"/>
<g>
	<path d="M115.389,211.893H95.755L92.4,189.437H68.526l-3.361,22.456H47.301L67.107,88.1h28.476L115.389,211.893z M71.003,172.634
		h18.741L80.37,110.03L71.003,172.634z"/>
	<path d="M182.63,116.576v4.42c0,12.73-3.896,20.865-12.557,24.933c10.433,4.068,14.501,13.442,14.501,26.531v10.081
		c0,19.093-10.081,29.353-29.535,29.353h-30.593V88.1h29.354C173.963,88.1,182.63,97.474,182.63,116.576z M143.893,105.79v32.716
		h7.61c7.252,0,11.672-3.189,11.672-13.089v-6.899c0-8.841-3.01-12.728-9.905-12.728H143.893z M143.893,156.188v38.021h11.146
		c6.547,0,10.08-3.01,10.08-12.202v-10.786c0-11.498-3.713-15.033-12.556-15.033H143.893z"/>
	<path d="M252.699,165.734v16.445c0,19.815-9.908,31.132-29.001,31.132c-19.104,0-29.008-11.316-29.008-31.132v-64.366
		c0-19.807,9.904-31.125,29.008-31.125c19.093,0,29.001,11.318,29.001,31.125v12.023h-18.396v-13.261
		c0-8.841-3.889-12.205-10.081-12.205c-6.185,0-10.077,3.363-10.077,12.205v66.843c0,8.847,3.893,12.029,10.077,12.029
		c6.192,0,10.081-3.183,10.081-12.029v-17.685H252.699z"/>
</g>
</svg>
